<svg width="24" height="30" viewBox="0 0 24 30" fill="none" xmlns="http://www.w3.org/2000/svg">
<path d="M16.1393 6.50546L5.28672 12.7711C3.57109 13.7617 3.57109 16.2381 5.28672 17.2287L16.1393 23.4943C17.8549 24.4849 20 23.2472 20 21.2661V8.7337C20 6.75253 17.8549 5.51488 16.1393 6.50546ZM16.4083 16.4124C16.5988 16.5833 16.7177 16.7727 16.7523 16.9585C16.7881 17.1629 16.7165 17.3442 16.5318 17.5162C16.3667 17.6582 16.2016 17.7182 16.0042 17.7044C15.8021 17.6928 15.5828 17.5658 15.3322 17.3164L13.9988 15.9922L12.5776 17.4065C12.3963 17.5981 12.222 17.7044 12.0326 17.7378C11.9968 17.7436 11.9622 17.7471 11.9287 17.7471C11.7601 17.7471 11.6101 17.6697 11.4727 17.5127C11.3353 17.3522 11.2764 17.186 11.2879 16.9886C11.2995 16.7807 11.4346 16.5556 11.6897 16.3212L13.0082 15.0109L11.6493 13.6612C11.4542 13.4765 11.3318 13.2779 11.2995 13.0897C11.2729 12.8657 11.3341 12.6937 11.49 12.5379C11.632 12.3959 11.7786 12.3277 11.9403 12.3277C12.1319 12.3277 12.3178 12.4039 12.5268 12.569L12.5418 12.5817L13.9988 14.0226L15.4304 12.6071C15.6301 12.4074 15.8287 12.2896 16.0203 12.2573C16.227 12.2308 16.4025 12.2966 16.5618 12.4559C16.6992 12.5817 16.7719 12.733 16.7719 12.8981C16.7604 13.1174 16.683 13.3022 16.5272 13.488L16.5156 13.5007L14.9894 15.0016L16.4083 16.4124Z" fill="#1CC8EE"/>
</svg>
