<svg width="22" height="22" viewBox="0 0 22 22" fill="none" xmlns="http://www.w3.org/2000/svg">
<path fill-rule="evenodd" clip-rule="evenodd" d="M2.75 10C2.75 5.99594 5.99594 2.75 10 2.75C14.0041 2.75 17.25 5.99594 17.25 10C17.25 11.9381 16.4895 13.6985 15.2507 14.9993C15.2038 15.0345 15.1588 15.0734 15.1161 15.1161C15.0734 15.1588 15.0345 15.2038 14.9993 15.2507C13.6985 16.4895 11.9381 17.25 10 17.25C5.99594 17.25 2.75 14.0041 2.75 10ZM15.9539 17.7216C14.3069 18.9934 12.2418 19.75 10 19.75C4.61522 19.75 0.25 15.3848 0.25 10C0.25 4.61522 4.61522 0.25 10 0.25C15.3848 0.25 19.75 4.61522 19.75 10C19.75 12.2418 18.9934 14.3069 17.7216 15.9539L21.3839 19.6161C21.872 20.1043 21.872 20.8957 21.3839 21.3839C20.8957 21.872 20.1043 21.872 19.6161 21.3839L15.9539 17.7216Z" fill="#131414"/>
</svg>
