<svg width="18" height="24" viewBox="0 0 18 24" fill="none" xmlns="http://www.w3.org/2000/svg">
<path d="M8.10076 23.1958C1.4791 13.5964 0.25 12.6112 0.25 9.08325C0.25 4.25075 4.16749 0.333252 9 0.333252C13.8325 0.333252 17.75 4.25075 17.75 9.08325C17.75 12.6112 16.5209 13.5964 9.89925 23.1958C9.46471 23.8235 8.53525 23.8235 8.10076 23.1958ZM9 12.7291C11.0135 12.7291 12.6458 11.0968 12.6458 9.08325C12.6458 7.0697 11.0135 5.43742 9 5.43742C6.98645 5.43742 5.35417 7.0697 5.35417 9.08325C5.35417 11.0968 6.98645 12.7291 9 12.7291Z" fill="#F5F5F5"/>
</svg>
